<svg width="32" height="32" viewBox="0 0 32 32" fill="none" xmlns="http://www.w3.org/2000/svg">
<g clip-path="url(#clip0)">
<path d="M16 31.999C24.8366 31.999 32 24.8356 32 15.999C32 7.16247 24.8366 -0.000976562 16 -0.000976562C7.16344 -0.000976562 0 7.16247 0 15.999C0 24.8356 7.16344 31.999 16 31.999Z" fill="white"/>
<path d="M25.5599 17.2872V23.8836H21.7354V17.7292C21.7354 16.1839 21.1832 15.1286 19.7985 15.1286C18.7418 15.1286 18.114 15.8391 17.8368 16.5271C17.7361 16.7729 17.7102 17.1143 17.7102 17.4591V23.8833H13.8854C13.8854 23.8833 13.9368 13.4599 13.8854 12.3809H17.7104V14.0109C17.7027 14.0237 17.6919 14.0363 17.6851 14.0485H17.7104V14.0109C18.2187 13.2288 19.1251 12.1108 21.1573 12.1108C23.6734 12.1108 25.5599 13.7548 25.5599 17.2872ZM9.88443 6.8363C8.57614 6.8363 7.72021 7.69509 7.72021 8.8234C7.72021 9.92775 8.55133 10.8113 9.83423 10.8113H9.85904C11.193 10.8113 12.0224 9.92775 12.0224 8.8234C11.997 7.69509 11.193 6.8363 9.88443 6.8363ZM7.94753 23.8836H11.7708V12.3809H7.94753V23.8836Z" fill="#254B59"/>
</g>
<defs>
<clipPath id="clip0">
<rect width="32" height="32" fill="white"/>
</clipPath>
</defs>
</svg>
